<svg xmlns="http://www.w3.org/2000/svg" width="23" height="23"><path fill-rule="evenodd" fill="#8d8d8d" d="M19.071 14.928a9.948 9.948 0 00-3.8-2.383 5.78 5.78 0 002.51-4.765A5.788 5.788 0 0012 2a5.788 5.788 0 00-5.781 5.78 5.78 5.78 0 002.51 4.765 9.95 9.95 0 00-3.8 2.383A9.933 9.933 0 002 22h1.562c0-4.652 3.785-8.437 8.438-8.437 4.652 0 8.437 3.785 8.437 8.437H22a9.933 9.933 0 00-2.929-7.07zM7.781 7.78A4.223 4.223 0 0112 3.562a4.223 4.223 0 014.219 4.218 4.224 4.224 0 01-4.22 4.22 4.224 4.224 0 01-4.218-4.22z"/></svg>