<svg xmlns="http://www.w3.org/2000/svg" width="16" height="16" viewBox="0 0 16 21"><path d="M8.5.266C4.227.266 0 3.07 0 7.613c0 2.887 1.648 4.528 2.648 4.528.414 0 .653-1.133.653-1.454 0-.378-.989-1.19-.989-2.78 0-3.298 2.551-5.634 5.852-5.634 2.836 0 4.938 1.586 4.938 4.504 0 2.176-.891 6.262-3.766 6.262-1.035 0-1.922-.738-1.922-1.797 0-1.55 1.098-3.05 1.098-4.652 0-2.715-3.91-2.223-3.91 1.058 0 .692.085 1.454.398 2.082-.574 2.434-1.75 6.067-1.75 8.575 0 .777.113 1.539.188 2.312.14.156.07.14.289.063 2.097-2.828 2.023-3.383 2.972-7.086.512.957 1.84 1.476 2.887 1.476 4.426 0 6.414-4.246 6.414-8.074 0-4.07-3.574-6.73-7.5-6.73zm0 0" id="surface1"/></svg>