<svg xmlns="http://www.w3.org/2000/svg"
 xmlns:xlink="http://www.w3.org/1999/xlink"
 width="11px" height="12px"  viewBox="0 0 11 12">
<path fill-rule="evenodd"  fill="#727272"
 d="M9.906738,5.767975 C9.906738,5.767975 5.569153,1.1078491 5.569153,1.1078491 C5.507141,1.0417175 5.435852,1.0080872 5.3549194,1.0080872 C5.274597,1.0080872 5.203186,1.0417175 5.1412964,1.1078491 C5.1412964,1.1078491 4.675537,1.6082153 4.675537,1.6082153 C4.6134644,1.6746826 4.5828247,1.7514038 4.5828247,1.8381348 C4.5828247,1.9249573 4.6134644,2.0020752 4.675537,2.0683289 C4.675537,2.0683289 8.33374,5.998474 8.33374,5.998474 C8.33374,5.998474 4.675537,9.928711 4.675537,9.928711 C4.6134644,9.995483 4.5828247,10.072113 4.5828247,10.158936 C4.5828247,10.245056 4.6134644,10.3220825 4.675537,10.389435 C4.675537,10.389435 5.1412964,10.8888855 5.1412964,10.8888855 C5.203186,10.955627 5.274597,10.988953 5.3549194,10.988953 C5.435852,10.988953 5.507141,10.955627 5.569153,10.8888855 C5.569153,10.8888855 9.906738,6.2280884 9.906738,6.2280884 C9.96875,6.16214 9.999512,6.0854797 9.999512,5.998474 C9.999512,5.91214 9.96875,5.835022 9.906738,5.767975 C9.906738,5.767975 9.906738,5.767975 9.906738,5.767975 ZM9.906738,5.767975 C9.906738,5.767975 M6.425415,5.998474 C6.425415,5.91214 6.3947754,5.835022 6.3321533,5.767975 C6.3321533,5.767975 1.9950562,1.1078491 1.9950562,1.1078491 C1.9326172,1.0417175 1.861206,1.0080872 1.7808228,1.0080872 C1.7000732,1.0080872 1.6286621,1.0417175 1.5665894,1.1078491 C1.5665894,1.1078491 1.1013794,1.6082153 1.1013794,1.6082153 C1.0396118,1.6746826 1.0082397,1.7514038 1.0082397,1.8381348 C1.0082397,1.9249573 1.0396118,2.0020752 1.1013794,2.0683289 C1.1013794,2.0683289 4.7591553,5.998474 4.7591553,5.998474 C4.7591553,5.998474 1.1013794,9.928711 1.1013794,9.928711 C1.0396118,9.995483 1.0082397,10.072113 1.0082397,10.158936 C1.0082397,10.245056 1.0396118,10.3220825 1.1013794,10.389435 C1.1013794,10.389435 1.5665894,10.8888855 1.5665894,10.8888855 C1.6286621,10.955627 1.7000732,10.988953 1.7808228,10.988953 C1.861206,10.988953 1.9326172,10.955627 1.9950562,10.8888855 C1.9950562,10.8888855 6.3321533,6.2280884 6.3321533,6.2280884 C6.3947754,6.16214 6.425415,6.0854797 6.425415,5.998474 C6.425415,5.998474 6.425415,5.998474 6.425415,5.998474 ZM6.425415,5.998474 C6.425415,5.998474 "/>
</svg>