<svg xmlns="http://www.w3.org/2000/svg"
 xmlns:xlink="http://www.w3.org/1999/xlink"
 width="19px" height="23px"  viewBox="0 0 19 23">
<path fill-rule="evenodd"  fill="#fe3e57"
 d="M16.998596,18.293945 C16.998596,18.293945 15.854431,5.395508 15.854431,5.395508 C15.829956,5.1086426 15.588806,4.89209 15.306946,4.89209 C15.306946,4.89209 12.952881,4.89209 12.952881,4.89209 C12.920044,2.7402344 11.162964,1.0014648 9.005005,1.0014648 C6.847229,1.0014648 5.090027,2.7402344 5.057251,4.89209 C5.057251,4.89209 2.703247,4.89209 2.703247,4.89209 C2.4173584,4.89209 2.1802368,5.1086426 2.1557617,5.395508 C2.1557617,5.395508 1.0113525,18.293945 1.0113525,18.293945 C1.0113525,18.310791 1.0073242,18.32666 1.0073242,18.343506 C1.0073242,19.812256 2.3519287,21.006348 4.006958,21.006348 C4.006958,21.006348 14.002991,21.006348 14.002991,21.006348 C15.658264,21.006348 17.002869,19.812256 17.002869,18.343506 C17.002869,18.32666 17.002869,18.310791 16.998596,18.293945 C16.998596,18.293945 16.998596,18.293945 16.998596,18.293945 ZM9.005005,2.1062012 C10.553894,2.1062012 11.8168335,3.3503418 11.849365,4.89209 C11.849365,4.89209 6.1605835,4.89209 6.1605835,4.89209 C6.1933594,3.3503418 7.4560547,2.1062012 9.005005,2.1062012 C9.005005,2.1062012 9.005005,2.1062012 9.005005,2.1062012 ZM14.002991,19.9021 C14.002991,19.9021 4.006958,19.9021 4.006958,19.9021 C2.968872,19.9021 2.1272583,19.2146 2.1109009,18.36792 C2.1109009,18.36792 3.2059937,6.0007324 3.2059937,6.0007324 C3.2059937,6.0007324 5.0531616,6.0007324 5.0531616,6.0007324 C5.0531616,6.0007324 5.0531616,7.6779785 5.0531616,7.6779785 C5.0531616,7.9848633 5.298401,8.230469 5.6048584,8.230469 C5.911499,8.230469 6.1567383,7.9848633 6.1567383,7.6779785 C6.1567383,7.6779785 6.1567383,6.0007324 6.1567383,6.0007324 C6.1567383,6.0007324 11.849365,6.0007324 11.849365,6.0007324 C11.849365,6.0007324 11.849365,7.6779785 11.849365,7.6779785 C11.849365,7.9848633 12.0946045,8.230469 12.401062,8.230469 C12.70752,8.230469 12.952881,7.9848633 12.952881,7.6779785 C12.952881,7.6779785 12.952881,6.0007324 12.952881,6.0007324 C12.952881,6.0007324 14.80011,6.0007324 14.80011,6.0007324 C14.80011,6.0007324 15.899292,18.36792 15.899292,18.36792 C15.882935,19.2146 15.037109,19.9021 14.002991,19.9021 C14.002991,19.9021 14.002991,19.9021 14.002991,19.9021 ZM14.002991,19.9021 C14.002991,19.9021 "/>
</svg>