<svg xmlns="http://www.w3.org/2000/svg"
 xmlns:xlink="http://www.w3.org/1999/xlink"
 width="23px" height="23px"  viewBox="0 0 23 23">
<path fill-rule="evenodd"  fill="#8d8d8d"
 d="M19.895447,7.2612305 C19.481201,7.461426 19.3078,7.959961 19.508179,8.374512 C20.055786,9.505371 20.33319,10.724121 20.33319,11.999512 C20.33319,16.59375 16.59497,20.332031 11.999939,20.332031 C7.404907,20.332031 3.666626,16.59375 3.666626,11.999512 C3.666626,7.4038086 7.404907,3.6660156 11.999939,3.6660156 C13.904053,3.6660156 15.692749,4.2875977 17.173279,5.463379 C17.53247,5.7504883 18.057556,5.6904297 18.344116,5.32959 C18.630798,4.9692383 18.570679,4.444824 18.210205,4.1591797 C16.45752,2.7661133 14.251953,1.9985352 11.999939,1.9985352 C6.486206,1.9985352 2.0,6.4853516 2.0,11.999512 C2.0,17.512695 6.486206,21.999023 11.999939,21.999023 C17.51361,21.999023 21.999939,17.512695 21.999939,11.999512 C21.999939,10.471191 21.66632,9.007324 21.008423,7.6484375 C20.80835,7.2338867 20.308228,7.061035 19.895447,7.2612305 C19.895447,7.2612305 19.895447,7.2612305 19.895447,7.2612305 ZM19.895447,7.2612305 C19.895447,7.2612305 M11.999939,5.3320312 C11.539917,5.3320312 11.166626,5.7055664 11.166626,6.1655273 C11.166626,6.1655273 11.166626,11.999512 11.166626,11.999512 C11.166626,12.458496 11.539917,12.83252 11.999939,12.83252 C11.999939,12.83252 16.166626,12.83252 16.166626,12.83252 C16.626709,12.83252 17.0,12.458496 17.0,11.999512 C17.0,11.5390625 16.626709,11.165527 16.166626,11.165527 C16.166626,11.165527 12.833191,11.165527 12.833191,11.165527 C12.833191,11.165527 12.833191,6.1655273 12.833191,6.1655273 C12.833191,5.7055664 12.4599,5.3320312 11.999939,5.3320312 C11.999939,5.3320312 11.999939,5.3320312 11.999939,5.3320312 ZM11.999939,5.3320312 C11.999939,5.3320312 "/>
</svg>