<svg xmlns="http://www.w3.org/2000/svg"
 xmlns:xlink="http://www.w3.org/1999/xlink"
 width="23px" height="23px"  viewBox="0 0 23 23">
<path fill-rule="evenodd"  fill="#8d8d8d"
 d="M19.070984,14.928223 C17.981873,13.838867 16.685486,13.032227 15.270996,12.544922 C16.78595,11.500977 17.781128,9.754883 17.781128,7.7802734 C17.781128,4.5927734 15.187683,1.9985352 11.999939,1.9985352 C8.812164,1.9985352 6.2187195,4.5927734 6.2187195,7.7802734 C6.2187195,9.754883 7.2139893,11.500977 8.728973,12.544922 C7.3144836,13.032227 6.018097,13.838867 4.928833,14.928223 C3.0401,16.816895 1.9999695,19.327637 1.9999695,21.999023 C1.9999695,21.999023 3.562439,21.999023 3.562439,21.999023 C3.562439,17.34668 7.3474426,13.561523 11.999939,13.561523 C16.652405,13.561523 20.437439,17.34668 20.437439,21.999023 C20.437439,21.999023 22.0,21.999023 22.0,21.999023 C22.0,19.327637 20.959717,16.816895 19.070984,14.928223 ZM7.781189,7.7802734 C7.781189,5.4541016 9.673798,3.5620117 11.999939,3.5620117 C14.326172,3.5620117 16.218689,5.4541016 16.218689,7.7802734 C16.218689,10.105957 14.326172,11.999512 11.999939,11.999512 C9.673798,11.999512 7.781189,10.105957 7.781189,7.7802734 Z"/>
</svg>