<svg xmlns="http://www.w3.org/2000/svg"
 xmlns:xlink="http://www.w3.org/1999/xlink"
 width="19px" height="19px"  viewBox="0 0 23 23">
<path fill-rule="evenodd"  fill="#fe3e57"
 d="M19.070923,4.479248 C17.18219,2.5906982 14.6710205,1.5506592 11.9999695,1.5506592 C9.328796,1.5506592 6.817505,2.5906982 4.928772,4.479248 C3.040039,6.368042 1.9998779,8.879272 1.9998779,11.550415 C1.9998779,14.221313 3.040039,16.732422 4.928772,18.62146 C6.817505,20.510132 9.328796,21.550415 11.9999695,21.550415 C14.6710205,21.550415 17.18219,20.510132 19.070923,18.62146 C20.959656,16.732422 21.999939,14.221313 21.999939,11.550415 C21.999939,8.879272 20.959656,6.368042 19.070923,4.479248 ZM11.9999695,20.378418 C7.1321106,20.378418 3.171753,16.41809 3.171753,11.550415 C3.171753,6.682617 7.1321106,2.722168 11.9999695,2.722168 C16.867706,2.722168 20.828064,6.682617 20.828064,11.550415 C20.828064,16.41809 16.867706,20.378418 11.9999695,20.378418 ZM15.948853,8.341797 C15.948853,8.341797 10.774658,13.515869 10.774658,13.515869 C10.774658,13.515869 8.050964,10.792236 8.050964,10.792236 C7.822174,10.563232 7.451172,10.563232 7.22229,10.792236 C6.9935303,11.021118 6.9935303,11.392212 7.22229,11.620728 C7.22229,11.620728 10.360352,14.758911 10.360352,14.758911 C10.4747925,14.873291 10.624725,14.930664 10.774658,14.930664 C10.924561,14.930664 11.074585,14.873291 11.188904,14.758911 C11.188904,14.758911 16.777405,9.170288 16.777405,9.170288 C17.006287,8.941772 17.006287,8.570679 16.777405,8.341797 C16.548645,8.112793 16.177612,8.112793 15.948853,8.341797 Z"/>
</svg>