<?xml version="1.0" encoding="UTF-8"?>
<svg xmlns="http://www.w3.org/2000/svg" xmlns:xlink="http://www.w3.org/1999/xlink" width="16px" height="16px" viewBox="0 0 16 16" version="1.1">
<g id="surface1">
<path style=" stroke:none;fill-rule:nonzero;fill:#8d8d8d;fill-opacity:1;" d="M 0.121094 1.714844 C 0.328125 1.277344 0.765625 1 1.25 1 L 14.75 1 C 15.234375 1 15.671875 1.277344 15.878906 1.714844 C 16.085938 2.152344 16.023438 2.667969 15.714844 3.042969 L 10 10.027344 L 10 14 C 10 14.378906 9.789062 14.726562 9.445312 14.894531 C 9.105469 15.0625 8.703125 15.027344 8.398438 14.800781 L 6.398438 13.300781 C 6.148438 13.113281 6 12.816406 6 12.5 L 6 10.027344 L 0.28125 3.039062 C -0.0234375 2.667969 -0.0859375 2.148438 0.121094 1.714844 Z M 0.121094 1.714844 "/>
</g>
</svg>
