<svg xmlns="http://www.w3.org/2000/svg"
 xmlns:xlink="http://www.w3.org/1999/xlink"
 width="18px" height="18px"  viewBox="0 0 18 18">
<path fill-rule="evenodd"  fill="#fe3e57"
 d="M1.9998779,5.749756 C1.9998779,5.749756 5.749878,5.749756 5.749878,5.749756 C5.749878,5.749756 5.749878,1.9998779 5.749878,1.9998779 C5.749878,1.9998779 1.9998779,1.9998779 1.9998779,1.9998779 C1.9998779,1.9998779 1.9998779,5.749756 1.9998779,5.749756 ZM7.624878,16.999878 C7.624878,16.999878 11.374878,16.999878 11.374878,16.999878 C11.374878,16.999878 11.374878,13.249756 11.374878,13.249756 C11.374878,13.249756 7.624878,13.249756 7.624878,13.249756 C7.624878,13.249756 7.624878,16.999878 7.624878,16.999878 ZM1.9998779,16.999878 C1.9998779,16.999878 5.749878,16.999878 5.749878,16.999878 C5.749878,16.999878 5.749878,13.249756 5.749878,13.249756 C5.749878,13.249756 1.9998779,13.249756 1.9998779,13.249756 C1.9998779,13.249756 1.9998779,16.999878 1.9998779,16.999878 ZM1.9998779,11.374939 C1.9998779,11.374939 5.749878,11.374939 5.749878,11.374939 C5.749878,11.374939 5.749878,7.624817 5.749878,7.624817 C5.749878,7.624817 1.9998779,7.624817 1.9998779,7.624817 C1.9998779,7.624817 1.9998779,11.374939 1.9998779,11.374939 ZM7.624878,11.374939 C7.624878,11.374939 11.374878,11.374939 11.374878,11.374939 C11.374878,11.374939 11.374878,7.624817 11.374878,7.624817 C11.374878,7.624817 7.624878,7.624817 7.624878,7.624817 C7.624878,7.624817 7.624878,11.374939 7.624878,11.374939 ZM13.249878,1.9998779 C13.249878,1.9998779 13.249878,5.749756 13.249878,5.749756 C13.249878,5.749756 16.999878,5.749756 16.999878,5.749756 C16.999878,5.749756 16.999878,1.9998779 16.999878,1.9998779 C16.999878,1.9998779 13.249878,1.9998779 13.249878,1.9998779 ZM7.624878,5.749756 C7.624878,5.749756 11.374878,5.749756 11.374878,5.749756 C11.374878,5.749756 11.374878,1.9998779 11.374878,1.9998779 C11.374878,1.9998779 7.624878,1.9998779 7.624878,1.9998779 C7.624878,1.9998779 7.624878,5.749756 7.624878,5.749756 ZM13.249878,11.374939 C13.249878,11.374939 16.999878,11.374939 16.999878,11.374939 C16.999878,11.374939 16.999878,7.624817 16.999878,7.624817 C16.999878,7.624817 13.249878,7.624817 13.249878,7.624817 C13.249878,7.624817 13.249878,11.374939 13.249878,11.374939 ZM13.249878,16.999878 C13.249878,16.999878 16.999878,16.999878 16.999878,16.999878 C16.999878,16.999878 16.999878,13.249756 16.999878,13.249756 C16.999878,13.249756 13.249878,13.249756 13.249878,13.249756 C13.249878,13.249756 13.249878,16.999878 13.249878,16.999878 Z"/>
</svg>