<svg xmlns="http://www.w3.org/2000/svg"
 xmlns:xlink="http://www.w3.org/1999/xlink"
 width="20px" height="19px"  viewBox="0 0 20 19">
<path fill-rule="evenodd"  fill="#727272"
 d="M9.99884,1.999115 C9.99884,1.999115 2.2283936,8.857117 2.2283936,8.857117 C1.9595947,9.094818 1.9309082,9.50827 2.1643066,9.781677 C2.1643066,9.781677 2.1643066,9.781677 2.1643066,9.781677 C2.3978271,10.0546875 2.8048706,10.083679 3.0735474,9.846649 C3.0735474,9.846649 3.3599854,9.5937805 3.3599854,9.5937805 C3.3599854,9.5937805 3.3599854,16.033722 3.3599854,16.033722 C3.3599854,17.119263 4.225769,17.999054 5.293579,17.999054 C5.293579,17.999054 8.903198,17.999054 8.903198,17.999054 C8.903198,17.999054 8.903198,12.725342 8.903198,12.725342 C8.903198,12.09259 9.408203,11.579285 10.031128,11.579285 C10.031128,11.579285 10.031128,11.579285 10.031128,11.579285 C10.654114,11.579285 11.159058,12.09259 11.159058,12.725342 C11.159058,12.725342 11.159058,17.999054 11.159058,17.999054 C11.159058,17.999054 14.704102,17.999054 14.704102,17.999054 C15.772034,17.999054 16.637817,17.119263 16.637817,16.033722 C16.637817,16.033722 16.637817,9.5937805 16.637817,9.5937805 C16.637817,9.5937805 16.924133,9.846649 16.924133,9.846649 C17.192932,10.083954 17.600037,10.0546875 17.833496,9.781677 C17.833496,9.781677 17.833496,9.781677 17.833496,9.781677 C18.066833,9.50827 18.038208,9.094818 17.76941,8.8573 C17.76941,8.8573 9.99884,1.999115 9.99884,1.999115 ZM15.348633,16.033722 C15.348633,16.39563 15.06012,16.689209 14.704102,16.689209 C14.704102,16.689209 12.448242,16.689209 12.448242,16.689209 C12.448242,16.689209 12.448242,12.725342 12.448242,12.725342 C12.448242,11.368866 11.366089,10.268982 10.031128,10.268982 C10.031128,10.268982 10.031128,10.268982 10.031128,10.268982 C8.696167,10.268982 7.6140137,11.368866 7.6140137,12.725342 C7.6140137,12.725342 7.6140137,16.689209 7.6140137,16.689209 C7.6140137,16.689209 5.293579,16.689209 5.293579,16.689209 C4.937683,16.689209 4.649048,16.39563 4.649048,16.033722 C4.649048,16.033722 4.649048,8.4557495 4.649048,8.4557495 C4.649048,8.4557495 9.99884,3.7341309 9.99884,3.7341309 C9.99884,3.7341309 15.348633,8.4557495 15.348633,8.4557495 C15.348633,8.4557495 15.348633,16.033722 15.348633,16.033722 Z"/>
</svg>