<svg xmlns="http://www.w3.org/2000/svg"
 xmlns:xlink="http://www.w3.org/1999/xlink"
 width="16px" height="23px"  viewBox="0 0 16 23">
<path fill-rule="evenodd"  fill="#fe3e57"
 d="M7.9973755,1.0045166 C4.139099,1.0045166 1.0001221,4.251465 1.0001221,8.242432 C1.0001221,13.1953125 7.261963,20.46643 7.5286255,20.77356 C7.779022,21.062012 8.216187,21.061523 8.4661255,20.77356 C8.732758,20.46643 14.994507,13.1953125 14.994507,8.242432 C14.994507,4.251465 11.855621,1.0045166 7.9973755,1.0045166 ZM7.9973755,11.883911 C6.0562134,11.883911 4.4769287,10.250366 4.4769287,8.242432 C4.4769287,6.234375 6.0562134,4.60083 7.9973755,4.60083 C9.938507,4.60083 11.517792,6.234375 11.517792,8.242432 C11.517792,10.250366 9.938507,11.883911 7.9973755,11.883911 Z"/>
</svg>