<svg
 width="27px" height="23px"  viewbox="0 0 27 23">
<path fill-rule="evenodd"  fill="#29282d"
 d="M18.89392,1.9987793 C16.469604,1.9987793 14.93457,3.4233398 14.073853,4.618164 C13.850586,4.928711 13.660645,5.239258 13.501099,5.5319824 C13.341553,5.239258 13.151733,4.928711 12.928467,4.618164 C12.067627,3.4233398 10.532715,1.9987793 8.108276,1.9987793 C6.3845215,1.9987793 4.8101196,2.6967773 3.6750488,3.963623 C2.5925903,5.1723633 1.99646,6.7910156 1.99646,8.52124 C1.99646,10.405273 2.7438965,12.156738 4.348755,14.034424 C5.783203,15.713135 7.8466797,17.44336 10.236206,19.446533 C11.126709,20.19336 12.047363,20.965332 13.027588,21.80957 C13.027588,21.80957 13.057007,21.833984 13.057007,21.833984 C13.184204,21.944092 13.342529,21.99878 13.501099,21.99878 C13.659546,21.99878 13.817993,21.944092 13.945068,21.833984 C13.945068,21.833984 13.974487,21.80957 13.974487,21.80957 C14.954834,20.965332 15.87561,20.19336 16.766235,19.446533 C19.15564,17.44336 21.219116,15.713135 22.653442,14.034424 C24.2583,12.156738 25.00586,10.405273 25.00586,8.52124 C25.00586,6.7910156 24.409546,5.1723633 23.327026,3.963623 C22.192139,2.696289 20.617798,1.9987793 18.89392,1.9987793 ZM15.891602,18.437256 C15.124023,19.080566 14.334106,19.74292 13.501099,20.455566 C12.668213,19.74292 11.878174,19.08081 11.110474,18.437256 C6.43396,14.516113 3.3445435,11.926025 3.3445435,8.52124 C3.3445435,7.1140137 3.821228,5.8063965 4.6866455,4.840088 C5.5619507,3.863037 6.7770996,3.3254395 8.108276,3.3254395 C9.956665,3.3254395 11.151367,4.4450684 11.828247,5.38501 C12.435303,6.2280273 12.752075,7.078125 12.8602295,7.4040527 C12.950562,7.67749 13.2092285,7.8618164 13.501099,7.8618164 C13.792969,7.8618164 14.051636,7.67749 14.14209,7.4040527 C14.250122,7.078125 14.566895,6.2280273 15.17395,5.38501 C15.85083,4.4450684 17.045654,3.3254395 18.89392,3.3254395 C20.225098,3.3254395 21.440308,3.863037 22.315552,4.840088 C23.18103,5.8063965 23.657593,7.1140137 23.657593,8.52124 C23.657593,11.926025 20.568115,14.516113 15.891602,18.437256 Z"/>
</svg>