<svg xmlns="http://www.w3.org/2000/svg"
 xmlns:xlink="http://www.w3.org/1999/xlink"
 width="20px" height="24px"  viewBox="0 0 20 24">
<path fill-rule="evenodd"  fill="#fe3e57"
 d="M1.0001221,9.937744 C1.0001221,9.937744 1.0001221,20.246338 1.0001221,20.246338 C1.0001221,20.51709 1.0682373,20.770386 1.180481,20.999756 C1.180481,20.999756 6.751251,15.556885 6.751251,15.556885 C4.616577,13.471191 3.2196045,12.106323 1.0001221,9.937744 ZM13.247711,15.556885 C13.247711,15.556885 18.818481,20.999756 18.818481,20.999756 C18.930725,20.770386 18.998962,20.51709 18.998962,20.246338 C18.998962,20.246338 18.998962,9.937744 18.998962,9.937744 C16.868958,12.018799 15.405853,13.448364 13.247711,15.556885 ZM9.999542,7.9366455 C9.669037,7.9366455 9.399536,8.199341 9.399536,8.522827 C9.399536,8.846191 9.669037,9.108887 9.999542,9.108887 C10.414978,9.108887 10.525177,8.830566 10.591095,8.482422 C10.568665,8.178711 10.315277,7.9366455 9.999542,7.9366455 ZM12.150909,16.143066 C12.150909,16.143066 7.848053,16.143066 7.848053,16.143066 C7.848053,16.143066 2.0289612,21.828613 2.0289612,21.828613 C2.2635498,21.938354 2.5230103,22.004883 2.7999573,22.004883 C2.7999573,22.004883 17.199036,22.004883 17.199036,22.004883 C17.476074,22.004883 17.735413,21.938354 17.970123,21.828613 C17.970123,21.828613 12.150909,16.143066 12.150909,16.143066 ZM3.3999634,10.624878 C3.3999634,10.624878 3.3999634,7.107666 3.3999634,7.107666 C3.3999634,7.107666 1.6001587,8.866211 1.6001587,8.866211 C1.6001587,8.866211 3.3999634,10.624878 3.3999634,10.624878 ZM18.398926,8.866211 C18.398926,8.866211 16.599121,7.107666 16.599121,7.107666 C16.599121,7.107666 16.599121,10.624878 16.599121,10.624878 C16.599121,10.624878 18.398926,8.866211 18.398926,8.866211 ZM12.150909,14.970703 C12.150909,14.970703 15.399109,11.797119 15.399109,11.797119 C15.399109,11.797119 15.399109,2.7476807 15.399109,2.7476807 C15.399109,2.3328857 15.054962,1.9967041 14.630402,1.9967041 C14.630402,1.9967041 5.256073,1.9967041 5.256073,1.9967041 C4.8936462,1.9967041 4.599884,2.2836914 4.599884,2.6378174 C4.599884,2.6378174 4.599884,11.797119 4.599884,11.797119 C4.599884,11.797119 7.848053,14.970703 7.848053,14.970703 C7.848053,14.970703 12.150909,14.970703 12.150909,14.970703 ZM5.7998047,8.522827 C5.7998047,6.260498 7.6840515,4.4195557 9.999542,4.4195557 C12.315033,4.4195557 14.19928,6.260498 14.19928,8.522827 C14.19928,10.029541 12.365387,10.8532715 11.199005,9.824219 C10.879822,10.105347 10.461884,10.281372 9.999542,10.281372 C9.006989,10.281372 8.1996155,9.492432 8.1996155,8.522827 C8.1996155,7.5531006 9.006989,6.76416 9.999542,6.76416 C10.991974,6.76416 11.799347,7.5531006 11.799347,8.522827 C11.799347,9.297607 12.999268,9.297607 12.999268,8.522827 C12.999268,6.9067383 11.654114,5.591919 9.999542,5.591919 C8.344971,5.591919 6.999695,6.9067383 6.999695,8.522827 C6.999695,9.525757 7.5176697,10.449097 8.385925,10.99292 C9.276489,11.549316 10.37915,11.601929 11.41391,11.137695 C12.129181,10.812988 12.63797,11.878296 11.915405,12.202393 C10.540161,12.820557 9.012726,12.776855 7.739105,11.979736 C6.525116,11.219482 5.7998047,9.927612 5.7998047,8.522827 Z"/>
</svg>