<svg xmlns="http://www.w3.org/2000/svg"
 xmlns:xlink="http://www.w3.org/1999/xlink"
 width="24px" height="24px"  viewBox="0 0 24 24">
<path fill-rule="evenodd"  fill="#fe3e57"
 d="M21.476624,16.762207 C21.476624,16.762207 18.992126,14.275024 18.992126,14.275024 C18.329285,13.611572 17.171143,13.610352 16.507141,14.275024 C16.507141,14.275024 16.092865,14.689575 16.092865,14.689575 C16.092865,14.689575 21.06247,19.663452 21.06247,19.663452 C21.06247,19.663452 21.476624,19.248901 21.476624,19.248901 C22.16452,18.560303 22.162231,17.447266 21.476624,16.762207 ZM13.4953,15.405518 C13.4953,15.405518 8.583008,10.485352 8.583008,10.485352 C8.104095,10.0061035 8.088074,9.259033 8.49295,8.737183 C8.49295,8.737183 3.53479,3.7746582 3.53479,3.7746582 C1.4018555,6.2631836 1.4851685,10.012939 3.839325,12.369263 C3.839325,12.369263 11.613068,20.153442 11.613068,20.153442 C13.872131,22.414307 17.57257,22.714233 20.200043,20.458008 C20.200043,20.458008 15.241638,15.495483 15.241638,15.495483 C14.718872,15.900879 13.9730835,15.884644 13.4953,15.405518 ZM9.712555,7.470825 C10.400452,6.7823486 10.398163,5.6693115 9.712555,4.984009 C9.712555,4.984009 7.2280273,2.4968262 7.2280273,2.4968262 C6.5651855,1.833374 5.406952,1.8321533 4.7429504,2.4968262 C4.7429504,2.4968262 4.3286743,2.911621 4.3286743,2.911621 C4.3286743,2.911621 9.298401,7.885254 9.298401,7.885254 C9.298401,7.885254 9.712555,7.470825 9.712555,7.470825 Z"/>
</svg>