<?xml version="1.0" encoding="UTF-8"?>
<svg xmlns="http://www.w3.org/2000/svg" xmlns:xlink="http://www.w3.org/1999/xlink" width="16px" height="16px" viewBox="0 0 16 21" version="1.1">
<g id="surface1">
<path style=" stroke:none;fill-rule:nonzero;fill:rgb(0%,0%,0%);fill-opacity:1;" d="M 8.5 0.265625 C 4.226562 0.265625 0 3.070312 0 7.613281 C 0 10.5 1.648438 12.140625 2.648438 12.140625 C 3.0625 12.140625 3.300781 11.007812 3.300781 10.6875 C 3.300781 10.308594 2.3125 9.496094 2.3125 7.90625 C 2.3125 4.609375 4.863281 2.273438 8.164062 2.273438 C 11 2.273438 13.101562 3.859375 13.101562 6.777344 C 13.101562 8.953125 12.210938 13.039062 9.335938 13.039062 C 8.300781 13.039062 7.414062 12.300781 7.414062 11.242188 C 7.414062 9.691406 8.511719 8.191406 8.511719 6.589844 C 8.511719 3.875 4.601562 4.367188 4.601562 7.648438 C 4.601562 8.339844 4.6875 9.101562 5 9.730469 C 4.425781 12.164062 3.25 15.796875 3.25 18.304688 C 3.25 19.082031 3.363281 19.84375 3.4375 20.617188 C 3.578125 20.773438 3.507812 20.757812 3.726562 20.679688 C 5.824219 17.851562 5.75 17.296875 6.699219 13.59375 C 7.210938 14.550781 8.539062 15.070312 9.585938 15.070312 C 14.011719 15.070312 16 10.824219 16 6.996094 C 16 2.925781 12.425781 0.265625 8.5 0.265625 Z M 8.5 0.265625 "/>
</g>
</svg>
