<svg 
 width="22px" height="24px"  viewbox="0 0 22 24">
<path fill-rule="evenodd"  fill="#29282d"
 d="M19.708618,20.218994 C19.708618,20.218994 15.027588,15.269287 15.027588,15.269287 C16.231445,13.812988 16.891113,11.981689 16.891113,10.074951 C16.891113,5.621826 13.328125,1.998291 8.947205,1.998291 C4.5683594,1.998291 1.0053711,5.621826 1.0053711,10.074951 C1.0053711,14.529297 4.5683594,18.15332 8.947205,18.15332 C10.59137,18.15332 12.159546,17.64917 13.498169,16.690186 C13.498169,16.690186 18.216309,21.680176 18.216309,21.680176 C18.413635,21.889648 18.678223,22.004395 18.963501,22.004395 C19.23169,22.004395 19.48584,21.899414 19.680176,21.709717 C20.09314,21.306885 20.104858,20.63916 19.708618,20.218994 C19.708618,20.218994 19.708618,20.218994 19.708618,20.218994 ZM8.947205,4.105957 C12.184631,4.105957 14.818726,6.784668 14.818726,10.074951 C14.818726,13.367432 12.184631,16.045654 8.947205,16.045654 C5.7113647,16.045654 3.0777588,13.367432 3.0777588,10.074951 C3.0777588,6.784668 5.7113647,4.105957 8.947205,4.105957 C8.947205,4.105957 8.947205,4.105957 8.947205,4.105957 ZM8.947205,4.105957 C8.947205,4.105957 "/>
</svg>