<svg 
 width="18px" height="18px"  viewBox="0 0 18 18">
<path fill-rule="evenodd"  fill="#ffffff"
 d="M13.007629,11.6813965 C13.745605,10.673523 14.187256,9.435242 14.187256,8.093262 C14.187256,4.733032 11.453491,1.9992676 8.093506,1.9992676 C4.7335205,1.9992676 1.9997559,4.733032 1.9997559,8.093262 C1.9997559,11.453186 4.7335205,14.186707 8.093506,14.186707 C9.435669,14.186707 10.67395,13.744995 11.681946,13.007202 C11.681946,13.007202 15.674072,16.999512 15.674072,16.999512 C15.674072,16.999512 16.999756,15.673279 16.999756,15.673279 C16.999756,15.673279 13.007629,11.6813965 13.007629,11.6813965 C13.007629,11.6813965 13.007629,11.6813965 13.007629,11.6813965 ZM8.093506,12.3116455 C5.767151,12.3116455 3.8747559,10.419434 3.8747559,8.093262 C3.8747559,5.7665405 5.767151,3.8740845 8.093506,3.8740845 C10.419861,3.8740845 12.312256,5.7665405 12.312256,8.093262 C12.312256,10.419434 10.419861,12.3116455 8.093506,12.3116455 C8.093506,12.3116455 8.093506,12.3116455 8.093506,12.3116455 ZM8.093506,12.3116455 C8.093506,12.3116455 "/>
</svg>