<svg xmlns="http://www.w3.org/2000/svg" width="129" height="56"><path fill-rule="evenodd" fill="#fe3e57" d="M124.518 53.262a1.74 1.74 0 013.482 0c0 .96-.78 1.737-1.741 1.737a1.74 1.74 0 01-1.741-1.737zm-13.71 0c0-.96.78-1.739 1.741-1.739a1.74 1.74 0 110 3.476 1.74 1.74 0 01-1.74-1.737zm-13.492 0a1.74 1.74 0 013.482 0c0 .96-.78 1.737-1.741 1.737a1.74 1.74 0 01-1.741-1.737zm-13.71 0c0-.96.78-1.739 1.741-1.739a1.74 1.74 0 011.741 1.739c0 .96-.78 1.737-1.741 1.737a1.74 1.74 0 01-1.741-1.737zm-13.492 0a1.74 1.74 0 013.482 0c0 .96-.78 1.737-1.741 1.737a1.74 1.74 0 01-1.741-1.737zm-13.71 0a1.74 1.74 0 013.482 0c0 .96-.78 1.737-1.741 1.737a1.74 1.74 0 01-1.741-1.737zm-13.492 0a1.74 1.74 0 013.482 0c0 .96-.78 1.737-1.741 1.737a1.74 1.74 0 01-1.741-1.737zm-13.71 0a1.74 1.74 0 013.482 0c0 .96-.78 1.737-1.741 1.737a1.74 1.74 0 01-1.741-1.737zm-13.492 0a1.74 1.74 0 013.482 0c0 .96-.78 1.737-1.741 1.737a1.74 1.74 0 01-1.741-1.737zm-13.71 0a1.74 1.74 0 013.482 0c0 .96-.78 1.737-1.741 1.737A1.74 1.74 0 012 53.262zm122.518-16.509c0-.96.78-1.737 1.74-1.737A1.74 1.74 0 01128 36.753c0 .96-.78 1.738-1.741 1.738a1.74 1.74 0 01-1.741-1.738zm-13.71 0c0-.96.78-1.737 1.741-1.737a1.739 1.739 0 110 3.475 1.74 1.74 0 01-1.74-1.738zm-13.492 0c0-.96.78-1.737 1.74-1.737a1.739 1.739 0 110 3.475 1.74 1.74 0 01-1.74-1.738zm-13.71 0c0-.96.78-1.737 1.741-1.737a1.738 1.738 0 110 3.475 1.74 1.74 0 01-1.741-1.738zm-13.492 0c0-.96.78-1.737 1.74-1.737a1.74 1.74 0 011.742 1.737c0 .96-.78 1.738-1.741 1.738a1.74 1.74 0 01-1.741-1.738zm-13.71 0c0-.96.78-1.737 1.74-1.737a1.74 1.74 0 011.742 1.737c0 .96-.78 1.738-1.741 1.738a1.74 1.74 0 01-1.741-1.738zm-13.492 0c0-.96.78-1.737 1.74-1.737a1.74 1.74 0 011.742 1.737c0 .96-.78 1.738-1.741 1.738a1.74 1.74 0 01-1.741-1.738zm-13.71 0c0-.96.78-1.737 1.74-1.737a1.739 1.739 0 110 3.475 1.74 1.74 0 01-1.74-1.738zm-13.492 0c0-.96.78-1.737 1.74-1.737a1.74 1.74 0 011.742 1.737c0 .96-.78 1.738-1.741 1.738a1.74 1.74 0 01-1.741-1.738zm-13.71 0c0-.96.78-1.737 1.74-1.737a1.74 1.74 0 011.742 1.737c0 .96-.78 1.738-1.741 1.738A1.74 1.74 0 012 36.753zm122.518-16.508c0-.96.78-1.737 1.74-1.737A1.74 1.74 0 01128 20.245c0 .96-.78 1.738-1.741 1.738a1.74 1.74 0 01-1.741-1.738zm-13.71 0c0-.96.78-1.737 1.741-1.737.962 0 1.741.778 1.741 1.737a1.74 1.74 0 01-3.482 0zm-13.492 0c0-.96.78-1.737 1.74-1.737a1.74 1.74 0 011.742 1.737c0 .96-.78 1.738-1.741 1.738a1.74 1.74 0 01-1.741-1.738zm-13.71 0c0-.96.78-1.737 1.741-1.737a1.74 1.74 0 011.741 1.737c0 .96-.78 1.738-1.741 1.738a1.74 1.74 0 01-1.741-1.738zm-13.492 0c0-.96.78-1.737 1.74-1.737a1.74 1.74 0 011.742 1.737c0 .96-.78 1.738-1.741 1.738a1.74 1.74 0 01-1.741-1.738zm-13.71 0c0-.96.78-1.737 1.74-1.737a1.74 1.74 0 011.742 1.737c0 .96-.78 1.738-1.741 1.738a1.74 1.74 0 01-1.741-1.738zm-13.492 0c0-.96.78-1.737 1.74-1.737a1.74 1.74 0 011.742 1.737c0 .96-.78 1.738-1.741 1.738a1.74 1.74 0 01-1.741-1.738zm-13.71 0c0-.96.78-1.737 1.74-1.737a1.74 1.74 0 011.742 1.737c0 .96-.78 1.738-1.741 1.738a1.74 1.74 0 01-1.741-1.738zm-13.492 0c0-.96.78-1.737 1.74-1.737a1.74 1.74 0 011.742 1.737c0 .96-.78 1.738-1.741 1.738a1.74 1.74 0 01-1.741-1.738zm-13.71 0c0-.96.78-1.737 1.74-1.737a1.74 1.74 0 011.742 1.737c0 .96-.78 1.738-1.741 1.738A1.74 1.74 0 012 20.245zM124.518 3.737c0-.96.78-1.737 1.74-1.737A1.74 1.74 0 01128 3.737c0 .96-.78 1.738-1.741 1.738a1.74 1.74 0 01-1.741-1.738zm-13.71 0c0-.96.78-1.737 1.741-1.737.962 0 1.741.777 1.741 1.737a1.74 1.74 0 01-3.482 0zm-13.492 0c0-.96.78-1.737 1.74-1.737a1.74 1.74 0 011.742 1.737c0 .96-.78 1.738-1.741 1.738a1.74 1.74 0 01-1.741-1.738zm-13.71 0c0-.96.78-1.737 1.741-1.737a1.74 1.74 0 011.741 1.737c0 .96-.78 1.738-1.741 1.738a1.74 1.74 0 01-1.741-1.738zm-13.492 0c0-.96.78-1.737 1.74-1.737a1.74 1.74 0 011.742 1.737c0 .96-.78 1.738-1.741 1.738a1.74 1.74 0 01-1.741-1.738zm-13.71 0c0-.96.78-1.737 1.74-1.737a1.74 1.74 0 011.742 1.737c0 .96-.78 1.738-1.741 1.738a1.74 1.74 0 01-1.741-1.738zm-13.492 0c0-.96.78-1.737 1.74-1.737a1.74 1.74 0 011.742 1.737c0 .96-.78 1.738-1.741 1.738a1.74 1.74 0 01-1.741-1.738zm-13.71 0c0-.96.78-1.737 1.74-1.737a1.74 1.74 0 011.742 1.737c0 .96-.78 1.738-1.741 1.738a1.74 1.74 0 01-1.741-1.738zm-13.492 0c0-.96.78-1.737 1.74-1.737a1.74 1.74 0 011.742 1.737c0 .96-.78 1.738-1.741 1.738a1.74 1.74 0 01-1.741-1.738zM2 3.737C2 2.777 2.78 2 3.74 2a1.74 1.74 0 011.742 1.737c0 .96-.78 1.738-1.741 1.738A1.74 1.74 0 012 3.737z"/></svg>