<svg xmlns="http://www.w3.org/2000/svg"
 xmlns:xlink="http://www.w3.org/1999/xlink"
 width="129px" height="56px"  viewBox="0 0 129 56">
<path fill-rule="evenodd"  fill="#fe3e57"
 d="M124.517944,53.26172 C124.517944,52.301758 125.297485,51.523438 126.25891,51.523438 C127.22046,51.523438 127.99988,52.301758 127.99988,53.26172 C127.99988,54.22119 127.22046,54.999023 126.25891,54.999023 C125.297485,54.999023 124.517944,54.22119 124.517944,53.26172 ZM110.808105,53.26172 C110.808105,52.301758 111.58765,51.523438 112.549194,51.523438 C113.51062,51.523438 114.29004,52.301758 114.29004,53.26172 C114.29004,54.22119 113.51062,54.999023 112.549194,54.999023 C111.58765,54.999023 110.808105,54.22119 110.808105,53.26172 ZM97.31592,53.26172 C97.31592,52.301758 98.09534,51.523438 99.056885,51.523438 C100.01831,51.523438 100.79773,52.301758 100.79773,53.26172 C100.79773,54.22119 100.01831,54.999023 99.056885,54.999023 C98.09534,54.999023 97.31592,54.22119 97.31592,53.26172 ZM83.60596,53.26172 C83.60596,52.301758 84.38562,51.523438 85.347046,51.523438 C86.30859,51.523438 87.08801,52.301758 87.08801,53.26172 C87.08801,54.22119 86.30859,54.999023 85.347046,54.999023 C84.38562,54.999023 83.60596,54.22119 83.60596,53.26172 ZM70.11389,53.26172 C70.11389,52.301758 70.89331,51.523438 71.85474,51.523438 C72.816284,51.523438 73.5957,52.301758 73.5957,53.26172 C73.5957,54.22119 72.816284,54.999023 71.85474,54.999023 C70.89331,54.999023 70.11389,54.22119 70.11389,53.26172 ZM56.40393,53.26172 C56.40393,52.301758 57.18347,51.523438 58.144897,51.523438 C59.106445,51.523438 59.885864,52.301758 59.885864,53.26172 C59.885864,54.22119 59.106445,54.999023 58.144897,54.999023 C57.18347,54.999023 56.40393,54.22119 56.40393,53.26172 ZM42.911743,53.26172 C42.911743,52.301758 43.691162,51.523438 44.65271,51.523438 C45.614136,51.523438 46.393677,52.301758 46.393677,53.26172 C46.393677,54.22119 45.614136,54.999023 44.65271,54.999023 C43.691162,54.999023 42.911743,54.22119 42.911743,53.26172 ZM29.201904,53.26172 C29.201904,52.301758 29.981445,51.523438 30.942871,51.523438 C31.904297,51.523438 32.683716,52.301758 32.683716,53.26172 C32.683716,54.22119 31.904297,54.999023 30.942871,54.999023 C29.981445,54.999023 29.201904,54.22119 29.201904,53.26172 ZM15.709717,53.26172 C15.709717,52.301758 16.489136,51.523438 17.450562,51.523438 C18.41211,51.523438 19.191528,52.301758 19.191528,53.26172 C19.191528,54.22119 18.41211,54.999023 17.450562,54.999023 C16.489136,54.999023 15.709717,54.22119 15.709717,53.26172 ZM1.9997559,53.26172 C1.9997559,52.301758 2.7792969,51.523438 3.7407227,51.523438 C4.7022705,51.523438 5.4816895,52.301758 5.4816895,53.26172 C5.4816895,54.22119 4.7022705,54.999023 3.7407227,54.999023 C2.7792969,54.999023 1.9997559,54.22119 1.9997559,53.26172 ZM124.517944,36.753418 C124.517944,35.793457 125.297485,35.016113 126.25891,35.016113 C127.22046,35.016113 127.99988,35.793457 127.99988,36.753418 C127.99988,37.71289 127.22046,38.49121 126.25891,38.49121 C125.297485,38.49121 124.517944,37.71289 124.517944,36.753418 ZM110.808105,36.753418 C110.808105,35.793457 111.58765,35.016113 112.549194,35.016113 C113.51062,35.016113 114.29004,35.793457 114.29004,36.753418 C114.29004,37.71289 113.51062,38.49121 112.549194,38.49121 C111.58765,38.49121 110.808105,37.71289 110.808105,36.753418 ZM97.31592,36.753418 C97.31592,35.793457 98.09534,35.016113 99.056885,35.016113 C100.01831,35.016113 100.79773,35.793457 100.79773,36.753418 C100.79773,37.71289 100.01831,38.49121 99.056885,38.49121 C98.09534,38.49121 97.31592,37.71289 97.31592,36.753418 ZM83.60596,36.753418 C83.60596,35.793457 84.38562,35.016113 85.347046,35.016113 C86.30859,35.016113 87.08801,35.793457 87.08801,36.753418 C87.08801,37.71289 86.30859,38.49121 85.347046,38.49121 C84.38562,38.49121 83.60596,37.71289 83.60596,36.753418 ZM70.11389,36.753418 C70.11389,35.793457 70.89331,35.016113 71.85474,35.016113 C72.816284,35.016113 73.5957,35.793457 73.5957,36.753418 C73.5957,37.71289 72.816284,38.49121 71.85474,38.49121 C70.89331,38.49121 70.11389,37.71289 70.11389,36.753418 ZM56.40393,36.753418 C56.40393,35.793457 57.18347,35.016113 58.144897,35.016113 C59.106445,35.016113 59.885864,35.793457 59.885864,36.753418 C59.885864,37.71289 59.106445,38.49121 58.144897,38.49121 C57.18347,38.49121 56.40393,37.71289 56.40393,36.753418 ZM42.911743,36.753418 C42.911743,35.793457 43.691162,35.016113 44.65271,35.016113 C45.614136,35.016113 46.393677,35.793457 46.393677,36.753418 C46.393677,37.71289 45.614136,38.49121 44.65271,38.49121 C43.691162,38.49121 42.911743,37.71289 42.911743,36.753418 ZM29.201904,36.753418 C29.201904,35.793457 29.981445,35.016113 30.942871,35.016113 C31.904297,35.016113 32.683716,35.793457 32.683716,36.753418 C32.683716,37.71289 31.904297,38.49121 30.942871,38.49121 C29.981445,38.49121 29.201904,37.71289 29.201904,36.753418 ZM15.709717,36.753418 C15.709717,35.793457 16.489136,35.016113 17.450562,35.016113 C18.41211,35.016113 19.191528,35.793457 19.191528,36.753418 C19.191528,37.71289 18.41211,38.49121 17.450562,38.49121 C16.489136,38.49121 15.709717,37.71289 15.709717,36.753418 ZM1.9997559,36.753418 C1.9997559,35.793457 2.7792969,35.016113 3.7407227,35.016113 C4.7022705,35.016113 5.4816895,35.793457 5.4816895,36.753418 C5.4816895,37.71289 4.7022705,38.49121 3.7407227,38.49121 C2.7792969,38.49121 1.9997559,37.71289 1.9997559,36.753418 ZM124.517944,20.245117 C124.517944,19.285645 125.297485,18.507812 126.25891,18.507812 C127.22046,18.507812 127.99988,19.285645 127.99988,20.245117 C127.99988,21.205078 127.22046,21.983398 126.25891,21.983398 C125.297485,21.983398 124.517944,21.205078 124.517944,20.245117 ZM110.808105,20.245117 C110.808105,19.285645 111.58765,18.507812 112.549194,18.507812 C113.51062,18.507812 114.29004,19.285645 114.29004,20.245117 C114.29004,21.205078 113.51062,21.983398 112.549194,21.983398 C111.58765,21.983398 110.808105,21.205078 110.808105,20.245117 ZM97.31592,20.245117 C97.31592,19.285645 98.09534,18.507812 99.056885,18.507812 C100.01831,18.507812 100.79773,19.285645 100.79773,20.245117 C100.79773,21.205078 100.01831,21.983398 99.056885,21.983398 C98.09534,21.983398 97.31592,21.205078 97.31592,20.245117 ZM83.60596,20.245117 C83.60596,19.285645 84.38562,18.507812 85.347046,18.507812 C86.30859,18.507812 87.08801,19.285645 87.08801,20.245117 C87.08801,21.205078 86.30859,21.983398 85.347046,21.983398 C84.38562,21.983398 83.60596,21.205078 83.60596,20.245117 ZM70.11389,20.245117 C70.11389,19.285645 70.89331,18.507812 71.85474,18.507812 C72.816284,18.507812 73.5957,19.285645 73.5957,20.245117 C73.5957,21.205078 72.816284,21.983398 71.85474,21.983398 C70.89331,21.983398 70.11389,21.205078 70.11389,20.245117 ZM56.40393,20.245117 C56.40393,19.285645 57.18347,18.507812 58.144897,18.507812 C59.106445,18.507812 59.885864,19.285645 59.885864,20.245117 C59.885864,21.205078 59.106445,21.983398 58.144897,21.983398 C57.18347,21.983398 56.40393,21.205078 56.40393,20.245117 ZM42.911743,20.245117 C42.911743,19.285645 43.691162,18.507812 44.65271,18.507812 C45.614136,18.507812 46.393677,19.285645 46.393677,20.245117 C46.393677,21.205078 45.614136,21.983398 44.65271,21.983398 C43.691162,21.983398 42.911743,21.205078 42.911743,20.245117 ZM29.201904,20.245117 C29.201904,19.285645 29.981445,18.507812 30.942871,18.507812 C31.904297,18.507812 32.683716,19.285645 32.683716,20.245117 C32.683716,21.205078 31.904297,21.983398 30.942871,21.983398 C29.981445,21.983398 29.201904,21.205078 29.201904,20.245117 ZM15.709717,20.245117 C15.709717,19.285645 16.489136,18.507812 17.450562,18.507812 C18.41211,18.507812 19.191528,19.285645 19.191528,20.245117 C19.191528,21.205078 18.41211,21.983398 17.450562,21.983398 C16.489136,21.983398 15.709717,21.205078 15.709717,20.245117 ZM1.9997559,20.245117 C1.9997559,19.285645 2.7792969,18.507812 3.7407227,18.507812 C4.7022705,18.507812 5.4816895,19.285645 5.4816895,20.245117 C5.4816895,21.205078 4.7022705,21.983398 3.7407227,21.983398 C2.7792969,21.983398 1.9997559,21.205078 1.9997559,20.245117 ZM124.517944,3.7368164 C124.517944,2.7773438 125.297485,1.9995117 126.25891,1.9995117 C127.22046,1.9995117 127.99988,2.7773438 127.99988,3.7368164 C127.99988,4.6967773 127.22046,5.4750977 126.25891,5.4750977 C125.297485,5.4750977 124.517944,4.6967773 124.517944,3.7368164 ZM110.808105,3.7368164 C110.808105,2.7773438 111.58765,1.9995117 112.549194,1.9995117 C113.51062,1.9995117 114.29004,2.7773438 114.29004,3.7368164 C114.29004,4.6967773 113.51062,5.4750977 112.549194,5.4750977 C111.58765,5.4750977 110.808105,4.6967773 110.808105,3.7368164 ZM97.31592,3.7368164 C97.31592,2.7773438 98.09534,1.9995117 99.056885,1.9995117 C100.01831,1.9995117 100.79773,2.7773438 100.79773,3.7368164 C100.79773,4.6967773 100.01831,5.4750977 99.056885,5.4750977 C98.09534,5.4750977 97.31592,4.6967773 97.31592,3.7368164 ZM83.60596,3.7368164 C83.60596,2.7773438 84.38562,1.9995117 85.347046,1.9995117 C86.30859,1.9995117 87.08801,2.7773438 87.08801,3.7368164 C87.08801,4.6967773 86.30859,5.4750977 85.347046,5.4750977 C84.38562,5.4750977 83.60596,4.6967773 83.60596,3.7368164 ZM70.11389,3.7368164 C70.11389,2.7773438 70.89331,1.9995117 71.85474,1.9995117 C72.816284,1.9995117 73.5957,2.7773438 73.5957,3.7368164 C73.5957,4.6967773 72.816284,5.4750977 71.85474,5.4750977 C70.89331,5.4750977 70.11389,4.6967773 70.11389,3.7368164 ZM56.40393,3.7368164 C56.40393,2.7773438 57.18347,1.9995117 58.144897,1.9995117 C59.106445,1.9995117 59.885864,2.7773438 59.885864,3.7368164 C59.885864,4.6967773 59.106445,5.4750977 58.144897,5.4750977 C57.18347,5.4750977 56.40393,4.6967773 56.40393,3.7368164 ZM42.911743,3.7368164 C42.911743,2.7773438 43.691162,1.9995117 44.65271,1.9995117 C45.614136,1.9995117 46.393677,2.7773438 46.393677,3.7368164 C46.393677,4.6967773 45.614136,5.4750977 44.65271,5.4750977 C43.691162,5.4750977 42.911743,4.6967773 42.911743,3.7368164 ZM29.201904,3.7368164 C29.201904,2.7773438 29.981445,1.9995117 30.942871,1.9995117 C31.904297,1.9995117 32.683716,2.7773438 32.683716,3.7368164 C32.683716,4.6967773 31.904297,5.4750977 30.942871,5.4750977 C29.981445,5.4750977 29.201904,4.6967773 29.201904,3.7368164 ZM15.709717,3.7368164 C15.709717,2.7773438 16.489136,1.9995117 17.450562,1.9995117 C18.41211,1.9995117 19.191528,2.7773438 19.191528,3.7368164 C19.191528,4.6967773 18.41211,5.4750977 17.450562,5.4750977 C16.489136,5.4750977 15.709717,4.6967773 15.709717,3.7368164 ZM1.9997559,3.7368164 C1.9997559,2.7773438 2.7792969,1.9995117 3.7407227,1.9995117 C4.7022705,1.9995117 5.4816895,2.7773438 5.4816895,3.7368164 C5.4816895,4.6967773 4.7022705,5.4750977 3.7407227,5.4750977 C2.7792969,5.4750977 1.9997559,4.6967773 1.9997559,3.7368164 Z"/>
</svg>